<?xml version="1.0" standalone="no"?>
<!DOCTYPE svg PUBLIC "-//W3C//DTD SVG 20010904//EN"
 "http://www.w3.org/TR/2001/REC-SVG-20010904/DTD/svg10.dtd">
<svg version="1.0" xmlns="http://www.w3.org/2000/svg"
 width="200.000000pt" height="200.000000pt" viewBox="0 0 200.000000 200.000000"
 preserveAspectRatio="xMidYMid meet">
<metadata>
Created by potrace 1.14, written by Peter Selinger 2001-2017
</metadata>
<g transform="translate(0.000000,200.000000) scale(0.100000,-0.100000)"
fill="#000000" stroke="none">
<path d="M264 1967 c-9 -5 -22 -6 -30 -3 -10 4 -14 -3 -14 -27 0 -18 4 -37 10
-43 8 -8 17 -249 10 -276 -2 -10 -2 -67 0 -70 5 -7 5 -58 0 -58 -6 0 -3 -209
4 -227 3 -7 2 -13 -2 -13 -4 0 -6 -37 -5 -82 4 -130 4 -141 1 -180 -2 -21 0
-38 3 -38 3 0 3 -17 0 -37 -4 -21 -4 -55 0 -76 3 -21 3 -40 -1 -42 -5 -3 -4
-21 0 -40 5 -21 4 -35 -2 -35 -5 0 -6 -5 -2 -11 3 -6 7 -60 7 -120 l0 -109 66
-42 c36 -24 70 -45 76 -47 5 -2 31 -19 57 -38 26 -18 52 -33 58 -33 5 0 10 -3
10 -8 0 -4 17 -16 38 -27 20 -11 43 -25 50 -32 7 -7 41 -29 75 -48 80 -46 101
-59 107 -65 11 -11 188 -120 195 -120 8 0 307 190 315 201 3 3 15 9 28 13 12
4 22 12 22 17 0 5 7 9 15 9 8 0 15 5 15 10 0 6 7 10 15 10 8 0 15 5 15 10 0 6
4 10 10 10 9 0 264 163 285 182 6 5 10 276 10 748 1 665 0 740 -14 740 -433 5
-1417 3 -1427 -3z"/>
</g>
</svg>
